<svg width="34" height="33" viewBox="0 0 34 33" fill="none" xmlns="http://www.w3.org/2000/svg">
<path d="M27.7667 28.875L18.8417 20.2125C18.1333 20.7625 17.3187 21.1979 16.3979 21.5187C15.4771 21.8396 14.4972 22 13.4583 22C10.8847 22 8.70683 21.1347 6.92467 19.404C5.1425 17.6733 4.25094 15.5595 4.25 13.0625C4.25 10.5646 5.14156 8.45075 6.92467 6.721C8.70778 4.99125 10.8857 4.12592 13.4583 4.125C16.0319 4.125 18.2098 4.99033 19.992 6.721C21.7742 8.45167 22.6657 10.5655 22.6667 13.0625C22.6667 14.0708 22.5014 15.0219 22.1708 15.9156C21.8403 16.8094 21.3917 17.6 20.825 18.2875L29.75 26.95L27.7667 28.875ZM13.4583 19.25C15.2292 19.25 16.7346 18.6482 17.9747 17.4446C19.2147 16.241 19.8343 14.7803 19.8333 13.0625C19.8333 11.3438 19.2133 9.88258 17.9733 8.679C16.7332 7.47542 15.2282 6.87408 13.4583 6.875C11.6875 6.875 10.1821 7.47679 8.942 8.68038C7.70194 9.88396 7.08239 11.3447 7.08333 13.0625C7.08333 14.7812 7.70336 16.2424 8.94342 17.446C10.1835 18.6496 11.6884 19.2509 13.4583 19.25Z" fill="black"/>
</svg>
